<mxfile host="app.diagrams.net" agent="Mozilla/5.0 (Windows NT 10.0; Win64; x64) AppleWebKit/537.36 (KHTML, like Gecko) Chrome/134.0.0.0 Safari/537.36" version="26.0.16">
  <diagram name="Page-1" id="j2wiMFLWzzZv2HRtKn5t">
    <mxGraphModel dx="1984" dy="637" grid="1" gridSize="10" guides="1" tooltips="1" connect="1" arrows="1" fold="1" page="1" pageScale="1" pageWidth="850" pageHeight="1100" math="0" shadow="0">
      <root>
        <mxCell id="0" />
        <mxCell id="1" parent="0" />
        <mxCell id="I_I6QjNHhtnjnI7TC8sL-20" value="" style="edgeStyle=orthogonalEdgeStyle;rounded=0;sketch=1;hachureGap=4;jiggle=2;curveFitting=1;orthogonalLoop=1;jettySize=auto;html=1;fontFamily=Architects Daughter;fontSource=https%3A%2F%2Ffonts.googleapis.com%2Fcss%3Ffamily%3DArchitects%2BDaughter;" edge="1" parent="1" source="I_I6QjNHhtnjnI7TC8sL-2" target="I_I6QjNHhtnjnI7TC8sL-7">
          <mxGeometry relative="1" as="geometry" />
        </mxCell>
        <mxCell id="I_I6QjNHhtnjnI7TC8sL-27" value="" style="edgeStyle=orthogonalEdgeStyle;rounded=0;sketch=1;hachureGap=4;jiggle=2;curveFitting=1;orthogonalLoop=1;jettySize=auto;html=1;fontFamily=Architects Daughter;fontSource=https%3A%2F%2Ffonts.googleapis.com%2Fcss%3Ffamily%3DArchitects%2BDaughter;fillColor=#f8cecc;strokeColor=#b85450;entryX=0.474;entryY=0.01;entryDx=0;entryDy=0;entryPerimeter=0;" edge="1" parent="1" source="I_I6QjNHhtnjnI7TC8sL-2" target="I_I6QjNHhtnjnI7TC8sL-25">
          <mxGeometry relative="1" as="geometry">
            <mxPoint x="380" y="169.99761904761903" as="sourcePoint" />
            <mxPoint x="99.5238095238094" y="313.95" as="targetPoint" />
            <Array as="points">
              <mxPoint x="98" y="190" />
            </Array>
          </mxGeometry>
        </mxCell>
        <mxCell id="I_I6QjNHhtnjnI7TC8sL-41" value="" style="edgeStyle=orthogonalEdgeStyle;rounded=0;sketch=1;hachureGap=4;jiggle=2;curveFitting=1;orthogonalLoop=1;jettySize=auto;html=1;fontFamily=Architects Daughter;fontSource=https%3A%2F%2Ffonts.googleapis.com%2Fcss%3Ffamily%3DArchitects%2BDaughter;entryX=0.518;entryY=-0.002;entryDx=0;entryDy=0;entryPerimeter=0;fillColor=#d5e8d4;strokeColor=#82b366;" edge="1" parent="1" source="I_I6QjNHhtnjnI7TC8sL-2" target="I_I6QjNHhtnjnI7TC8sL-39">
          <mxGeometry relative="1" as="geometry">
            <mxPoint x="612" y="184" as="targetPoint" />
            <Array as="points">
              <mxPoint x="660" y="190" />
              <mxPoint x="660" y="326" />
            </Array>
          </mxGeometry>
        </mxCell>
        <mxCell id="I_I6QjNHhtnjnI7TC8sL-46" value="" style="edgeStyle=orthogonalEdgeStyle;rounded=0;sketch=1;hachureGap=4;jiggle=2;curveFitting=1;orthogonalLoop=1;jettySize=auto;html=1;fontFamily=Architects Daughter;fontSource=https%3A%2F%2Ffonts.googleapis.com%2Fcss%3Ffamily%3DArchitects%2BDaughter;entryX=0.5;entryY=0;entryDx=0;entryDy=0;entryPerimeter=0;fillColor=#d5e8d4;strokeColor=#82b366;" edge="1" parent="1" source="I_I6QjNHhtnjnI7TC8sL-2" target="I_I6QjNHhtnjnI7TC8sL-44">
          <mxGeometry relative="1" as="geometry">
            <mxPoint x="612" y="184" as="targetPoint" />
            <Array as="points">
              <mxPoint x="812" y="190" />
            </Array>
          </mxGeometry>
        </mxCell>
        <mxCell id="I_I6QjNHhtnjnI7TC8sL-2" value="&lt;b style=&quot;font-family: Helvetica;&quot;&gt;Kali Linux (Attacker)&lt;br&gt;&lt;span data-end=&quot;943&quot; data-start=&quot;928&quot;&gt;IP Address:&lt;/span&gt;&amp;nbsp;&lt;span data-end=&quot;960&quot; data-start=&quot;944&quot;&gt;192.168.1.10&lt;/span&gt;&lt;/b&gt;" style="shape=image;html=1;verticalAlign=top;verticalLabelPosition=bottom;labelBackgroundColor=#ffffff;imageAspect=0;aspect=fixed;image=https://cdn0.iconfinder.com/data/icons/software-engineering-and-video-gaming/512/77_hacker_user_gammer_programmer-128.png;sketch=1;hachureGap=4;jiggle=2;curveFitting=1;fontFamily=Architects Daughter;fontSource=https%3A%2F%2Ffonts.googleapis.com%2Fcss%3Ffamily%3DArchitects%2BDaughter;" vertex="1" parent="1">
          <mxGeometry x="380" y="120" width="128" height="128" as="geometry" />
        </mxCell>
        <mxCell id="I_I6QjNHhtnjnI7TC8sL-3" value="&lt;font face=&quot;Helvetica&quot;&gt;&lt;b&gt;&quot;DVWA (Target)&quot;&lt;br&gt;&lt;span data-end=&quot;1206&quot; data-start=&quot;1191&quot;&gt;IP Address:&lt;/span&gt; &lt;span data-end=&quot;1223&quot; data-start=&quot;1207&quot;&gt;192.168.1.20&lt;/span&gt;&lt;/b&gt;&lt;/font&gt;&lt;font face=&quot;Helvetica&quot;&gt;&lt;b&gt;&lt;/b&gt;&lt;/font&gt;" style="shape=image;html=1;verticalAlign=top;verticalLabelPosition=bottom;labelBackgroundColor=#ffffff;imageAspect=0;aspect=fixed;image=https://cdn3.iconfinder.com/data/icons/message-and-communication-4/32/18_-_-128.png;sketch=1;hachureGap=4;jiggle=2;curveFitting=1;fontFamily=Architects Daughter;fontSource=https%3A%2F%2Ffonts.googleapis.com%2Fcss%3Ffamily%3DArchitects%2BDaughter;" vertex="1" parent="1">
          <mxGeometry x="380" y="470" width="128" height="128" as="geometry" />
        </mxCell>
        <mxCell id="I_I6QjNHhtnjnI7TC8sL-31" value="" style="edgeStyle=orthogonalEdgeStyle;rounded=0;sketch=1;hachureGap=4;jiggle=2;curveFitting=1;orthogonalLoop=1;jettySize=auto;html=1;fontFamily=Architects Daughter;fontSource=https%3A%2F%2Ffonts.googleapis.com%2Fcss%3Ffamily%3DArchitects%2BDaughter;" edge="1" parent="1" source="I_I6QjNHhtnjnI7TC8sL-7" target="I_I6QjNHhtnjnI7TC8sL-3">
          <mxGeometry relative="1" as="geometry" />
        </mxCell>
        <mxCell id="I_I6QjNHhtnjnI7TC8sL-7" value="&lt;b&gt;&lt;font face=&quot;Helvetica&quot;&gt;Virtual Network &lt;br&gt;(Host-Only Adapter)&lt;/font&gt;&lt;/b&gt;" style="image;aspect=fixed;html=1;points=[];align=center;fontSize=12;image=img/lib/azure2/networking/Virtual_Networks.svg;sketch=1;hachureGap=4;jiggle=2;curveFitting=1;fontFamily=Architects Daughter;fontSource=https%3A%2F%2Ffonts.googleapis.com%2Fcss%3Ffamily%3DArchitects%2BDaughter;" vertex="1" parent="1">
          <mxGeometry x="410.5" y="330" width="67" height="40" as="geometry" />
        </mxCell>
        <mxCell id="I_I6QjNHhtnjnI7TC8sL-17" value="" style="edgeStyle=orthogonalEdgeStyle;rounded=0;sketch=1;hachureGap=4;jiggle=2;curveFitting=1;orthogonalLoop=1;jettySize=auto;html=1;fontFamily=Architects Daughter;fontSource=https%3A%2F%2Ffonts.googleapis.com%2Fcss%3Ffamily%3DArchitects%2BDaughter;fillColor=#f8cecc;strokeColor=#b85450;" edge="1" parent="1" source="I_I6QjNHhtnjnI7TC8sL-2" target="I_I6QjNHhtnjnI7TC8sL-15">
          <mxGeometry relative="1" as="geometry">
            <mxPoint x="295.0476190476188" y="250" as="targetPoint" />
            <Array as="points">
              <mxPoint x="230" y="192" />
            </Array>
          </mxGeometry>
        </mxCell>
        <mxCell id="I_I6QjNHhtnjnI7TC8sL-19" value="" style="edgeStyle=orthogonalEdgeStyle;rounded=0;sketch=1;hachureGap=4;jiggle=2;curveFitting=1;orthogonalLoop=1;jettySize=auto;html=1;fontFamily=Architects Daughter;fontSource=https%3A%2F%2Ffonts.googleapis.com%2Fcss%3Ffamily%3DArchitects%2BDaughter;fillColor=#f8cecc;strokeColor=#b85450;" edge="1" parent="1" source="I_I6QjNHhtnjnI7TC8sL-15" target="I_I6QjNHhtnjnI7TC8sL-3">
          <mxGeometry relative="1" as="geometry">
            <mxPoint x="230.0000000000001" y="430" as="targetPoint" />
            <Array as="points">
              <mxPoint x="230" y="540" />
            </Array>
          </mxGeometry>
        </mxCell>
        <mxCell id="I_I6QjNHhtnjnI7TC8sL-15" value="&lt;font face=&quot;Helvetica&quot;&gt;&lt;b&gt;Nmap Scan&amp;nbsp; &lt;br&gt;(Detect Open Ports)&lt;/b&gt;&lt;/font&gt;" style="sketch=0;pointerEvents=1;shadow=0;dashed=0;html=1;strokeColor=none;fillColor=#005F4B;labelPosition=center;verticalLabelPosition=bottom;verticalAlign=top;align=center;outlineConnect=0;shape=mxgraph.veeam2.magnifying_glass;hachureGap=4;jiggle=2;curveFitting=1;fontFamily=Architects Daughter;fontSource=https%3A%2F%2Ffonts.googleapis.com%2Fcss%3Ffamily%3DArchitects%2BDaughter;" vertex="1" parent="1">
          <mxGeometry x="200" y="340" width="60" height="40" as="geometry" />
        </mxCell>
        <mxCell id="I_I6QjNHhtnjnI7TC8sL-29" value="" style="edgeStyle=orthogonalEdgeStyle;rounded=0;sketch=1;hachureGap=4;jiggle=2;curveFitting=1;orthogonalLoop=1;jettySize=auto;html=1;fontFamily=Architects Daughter;fontSource=https%3A%2F%2Ffonts.googleapis.com%2Fcss%3Ffamily%3DArchitects%2BDaughter;fillColor=#f8cecc;strokeColor=#b85450;" edge="1" parent="1" source="I_I6QjNHhtnjnI7TC8sL-25" target="I_I6QjNHhtnjnI7TC8sL-3">
          <mxGeometry relative="1" as="geometry">
            <mxPoint x="99.5" y="474" as="targetPoint" />
            <Array as="points">
              <mxPoint x="100" y="540" />
            </Array>
          </mxGeometry>
        </mxCell>
        <mxCell id="I_I6QjNHhtnjnI7TC8sL-25" value="&lt;b&gt;&lt;font face=&quot;Helvetica&quot;&gt;Exploitation&lt;/font&gt;&lt;/b&gt;" style="image;aspect=fixed;html=1;points=[];align=center;fontSize=12;image=img/lib/azure2/general/Bug.svg;sketch=1;hachureGap=4;jiggle=2;curveFitting=1;fontFamily=Architects Daughter;fontSource=https%3A%2F%2Ffonts.googleapis.com%2Fcss%3Ffamily%3DArchitects%2BDaughter;" vertex="1" parent="1">
          <mxGeometry x="70" y="328" width="59" height="64" as="geometry" />
        </mxCell>
        <mxCell id="I_I6QjNHhtnjnI7TC8sL-36" value="" style="edgeStyle=orthogonalEdgeStyle;rounded=0;sketch=1;hachureGap=4;jiggle=2;curveFitting=1;orthogonalLoop=1;jettySize=auto;html=1;fontFamily=Architects Daughter;fontSource=https%3A%2F%2Ffonts.googleapis.com%2Fcss%3Ffamily%3DArchitects%2BDaughter;fillColor=#f8cecc;strokeColor=#b85450;" edge="1" parent="1" source="I_I6QjNHhtnjnI7TC8sL-2">
          <mxGeometry relative="1" as="geometry">
            <mxPoint x="-23" y="310" as="targetPoint" />
            <Array as="points">
              <mxPoint x="-23" y="190" />
            </Array>
          </mxGeometry>
        </mxCell>
        <mxCell id="I_I6QjNHhtnjnI7TC8sL-38" value="" style="edgeStyle=orthogonalEdgeStyle;rounded=0;sketch=1;hachureGap=4;jiggle=2;curveFitting=1;orthogonalLoop=1;jettySize=auto;html=1;fontFamily=Architects Daughter;fontSource=https%3A%2F%2Ffonts.googleapis.com%2Fcss%3Ffamily%3DArchitects%2BDaughter;fillColor=#f8cecc;strokeColor=#b85450;" edge="1" parent="1" source="I_I6QjNHhtnjnI7TC8sL-33" target="I_I6QjNHhtnjnI7TC8sL-3">
          <mxGeometry relative="1" as="geometry">
            <mxPoint x="-113.26666666666665" y="497" as="targetPoint" />
            <Array as="points">
              <mxPoint x="-16" y="540" />
            </Array>
          </mxGeometry>
        </mxCell>
        <mxCell id="I_I6QjNHhtnjnI7TC8sL-33" value="&lt;font face=&quot;Helvetica&quot;&gt;&lt;b&gt;Post-Exploitation&lt;/b&gt;&lt;/font&gt;" style="shape=image;html=1;verticalAlign=top;verticalLabelPosition=bottom;labelBackgroundColor=#ffffff;imageAspect=0;aspect=fixed;image=https://cdn2.iconfinder.com/data/icons/circle-icons-1/64/security-128.png;sketch=1;hachureGap=4;jiggle=2;curveFitting=1;fontFamily=Architects Daughter;fontSource=https%3A%2F%2Ffonts.googleapis.com%2Fcss%3Ffamily%3DArchitects%2BDaughter;" vertex="1" parent="1">
          <mxGeometry x="-60" y="316.5" width="87" height="87" as="geometry" />
        </mxCell>
        <mxCell id="I_I6QjNHhtnjnI7TC8sL-43" value="" style="edgeStyle=orthogonalEdgeStyle;rounded=0;sketch=1;hachureGap=4;jiggle=2;curveFitting=1;orthogonalLoop=1;jettySize=auto;html=1;fontFamily=Architects Daughter;fontSource=https%3A%2F%2Ffonts.googleapis.com%2Fcss%3Ffamily%3DArchitects%2BDaughter;fillColor=#d5e8d4;strokeColor=#82b366;" edge="1" parent="1" source="I_I6QjNHhtnjnI7TC8sL-39" target="I_I6QjNHhtnjnI7TC8sL-3">
          <mxGeometry relative="1" as="geometry">
            <mxPoint x="664" y="478" as="targetPoint" />
            <Array as="points">
              <mxPoint x="664" y="540" />
            </Array>
          </mxGeometry>
        </mxCell>
        <mxCell id="I_I6QjNHhtnjnI7TC8sL-39" value="&lt;b&gt;&lt;font face=&quot;Helvetica&quot;&gt;Firewall&amp;nbsp; &lt;br&gt;Blocks Unauthorized Traffic&lt;/font&gt;&lt;/b&gt;" style="image;aspect=fixed;html=1;points=[];align=center;fontSize=12;image=img/lib/azure2/networking/Web_Application_Firewall_Policies_WAF.svg;sketch=1;hachureGap=4;jiggle=2;curveFitting=1;fontFamily=Architects Daughter;fontSource=https%3A%2F%2Ffonts.googleapis.com%2Fcss%3Ffamily%3DArchitects%2BDaughter;" vertex="1" parent="1">
          <mxGeometry x="630" y="326" width="68" height="68" as="geometry" />
        </mxCell>
        <mxCell id="I_I6QjNHhtnjnI7TC8sL-48" value="" style="edgeStyle=orthogonalEdgeStyle;rounded=0;sketch=1;hachureGap=4;jiggle=2;curveFitting=1;orthogonalLoop=1;jettySize=auto;html=1;fontFamily=Architects Daughter;fontSource=https%3A%2F%2Ffonts.googleapis.com%2Fcss%3Ffamily%3DArchitects%2BDaughter;fillColor=#d5e8d4;strokeColor=#82b366;" edge="1" parent="1" source="I_I6QjNHhtnjnI7TC8sL-44" target="I_I6QjNHhtnjnI7TC8sL-3">
          <mxGeometry relative="1" as="geometry">
            <mxPoint x="812" y="460" as="targetPoint" />
            <Array as="points">
              <mxPoint x="812" y="540" />
            </Array>
          </mxGeometry>
        </mxCell>
        <mxCell id="I_I6QjNHhtnjnI7TC8sL-44" value="&lt;ol data-end=&quot;2939&quot; data-start=&quot;2599&quot;&gt;&lt;li class=&quot;&quot; data-end=&quot;2939&quot; data-start=&quot;2804&quot;&gt;&lt;ul data-end=&quot;2939&quot; data-start=&quot;2851&quot;&gt;&lt;li class=&quot;&quot; data-end=&quot;2939&quot; data-start=&quot;2889&quot;&gt;&lt;p class=&quot;&quot; data-end=&quot;2939&quot; data-start=&quot;2891&quot;&gt;&lt;b&gt;&lt;font face=&quot;Helvetica&quot;&gt;&lt;span data-end=&quot;2936&quot; data-start=&quot;2898&quot;&gt;IDS/IPS &lt;br&gt;Detects/Prevents &lt;br&gt;Malicious Activity&lt;/span&gt;.&lt;/font&gt;&lt;/b&gt;&lt;/p&gt;&lt;br&gt;&lt;/li&gt;&lt;br&gt;&lt;/ul&gt;&lt;br&gt;&lt;/li&gt;&lt;br&gt;&lt;/ol&gt;" style="sketch=0;points=[[0.015,0.015,0],[0.985,0.015,0],[0.985,0.985,0],[0.015,0.985,0],[0.25,0,0],[0.5,0,0],[0.75,0,0],[1,0.25,0],[1,0.5,0],[1,0.75,0],[0.75,1,0],[0.5,1,0],[0.25,1,0],[0,0.75,0],[0,0.5,0],[0,0.25,0]];verticalLabelPosition=bottom;html=1;verticalAlign=top;aspect=fixed;align=left;pointerEvents=1;shape=mxgraph.cisco19.rect;prIcon=ips_ids;fillColor=#FAFAFA;strokeColor=#005073;hachureGap=4;jiggle=2;curveFitting=1;fontFamily=Architects Daughter;fontSource=https%3A%2F%2Ffonts.googleapis.com%2Fcss%3Ffamily%3DArchitects%2BDaughter;" vertex="1" parent="1">
          <mxGeometry x="780" y="335" width="70.4" height="55" as="geometry" />
        </mxCell>
        <mxCell id="I_I6QjNHhtnjnI7TC8sL-49" value="&lt;h1&gt;&lt;b&gt;&lt;font face=&quot;Helvetica&quot;&gt;Penetration Testing&lt;/font&gt;&lt;/b&gt;&lt;/h1&gt;" style="rounded=0;whiteSpace=wrap;html=1;hachureGap=4;fontFamily=Architects Daughter;fontSource=https%3A%2F%2Ffonts.googleapis.com%2Fcss%3Ffamily%3DArchitects%2BDaughter;strokeColor=none;" vertex="1" parent="1">
          <mxGeometry x="-20" y="150" width="360" height="30" as="geometry" />
        </mxCell>
        <mxCell id="I_I6QjNHhtnjnI7TC8sL-50" value="&lt;h1&gt;&lt;font style=&quot;&quot; face=&quot;Helvetica&quot;&gt;Defensive Security Measures&lt;/font&gt;&lt;/h1&gt;" style="rounded=0;whiteSpace=wrap;html=1;hachureGap=4;fontFamily=Architects Daughter;fontSource=https%3A%2F%2Ffonts.googleapis.com%2Fcss%3Ffamily%3DArchitects%2BDaughter;strokeColor=none;sketch=1;curveFitting=1;jiggle=2;" vertex="1" parent="1">
          <mxGeometry x="520" y="150" width="450" height="30" as="geometry" />
        </mxCell>
      </root>
    </mxGraphModel>
  </diagram>
</mxfile>
